<svg width="500" height="500" viewBox="0 0 500 500" fill="none" xmlns="http://www.w3.org/2000/svg">
<g clip-path="url(#clip0_0_1)">
<mask id="mask0_0_1" style="mask-type:luminance" maskUnits="userSpaceOnUse" x="0" y="0" width="500" height="500">
<path d="M250 0C111.927 0 0 111.927 0 250C0 388.073 111.927 500 250 500C388.073 500 500 388.073 500 250C500 111.927 388.073 0 250 0Z" fill="white"/>
</mask>
<g mask="url(#mask0_0_1)">
<path d="M550 -50H-50V550H550V-50Z" fill="#181B32"/>
</g>
<path d="M410.474 381.953C403.156 397.099 394.031 408.906 383.354 417.052C372.599 425.255 358.865 431.547 342.542 435.76C326.026 440.026 305.432 442.193 281.328 442.193H225.208C225.328 442.146 225.448 442.099 225.573 442.052C225.906 441.927 226.24 441.797 226.573 441.672C226.849 441.568 227.125 441.458 227.401 441.349C227.734 441.219 228.068 441.083 228.396 440.948C228.672 440.839 228.943 440.729 229.208 440.62C229.542 440.479 229.875 440.339 230.208 440.198C230.474 440.083 230.74 439.969 231 439.854C231.333 439.708 231.667 439.563 232 439.411C232.255 439.297 232.516 439.182 232.771 439.068C233.109 438.911 233.448 438.75 233.786 438.594C234.026 438.479 234.276 438.365 234.521 438.245C234.87 438.078 235.219 437.906 235.562 437.734C235.792 437.625 236.026 437.51 236.255 437.396C236.63 437.203 237.005 437.01 237.385 436.818C237.578 436.719 237.771 436.62 237.964 436.521C238.531 436.219 239.094 435.917 239.651 435.609C240.104 435.365 240.552 435.109 241 434.854C241.146 434.776 241.292 434.688 241.438 434.604C241.734 434.432 242.031 434.26 242.328 434.083C242.505 433.984 242.677 433.875 242.849 433.771C243.115 433.615 243.38 433.453 243.641 433.297C243.823 433.182 244.01 433.063 244.193 432.948C244.437 432.792 244.687 432.641 244.932 432.49C245.12 432.37 245.307 432.245 245.5 432.12C245.734 431.969 245.969 431.818 246.203 431.661C246.396 431.536 246.589 431.406 246.776 431.276C247.005 431.125 247.234 430.974 247.464 430.818C247.656 430.688 247.844 430.552 248.036 430.422C248.255 430.266 248.479 430.109 248.698 429.958C248.891 429.818 249.083 429.682 249.271 429.547C249.49 429.391 249.708 429.234 249.917 429.078C250.109 428.937 250.302 428.797 250.49 428.656C250.703 428.495 250.911 428.339 251.12 428.182C251.312 428.036 251.5 427.891 251.682 427.745C251.891 427.589 252.099 427.427 252.307 427.266C252.49 427.115 252.682 426.969 252.865 426.823C253.068 426.656 253.271 426.495 253.469 426.333C253.656 426.182 253.839 426.031 254.021 425.875C254.219 425.714 254.422 425.547 254.615 425.38C254.802 425.224 254.984 425.073 255.161 424.917C255.359 424.75 255.552 424.583 255.745 424.411C255.927 424.255 256.109 424.099 256.286 423.943C256.479 423.771 256.667 423.599 256.854 423.427C257.036 423.266 257.214 423.104 257.391 422.943C257.578 422.771 257.76 422.599 257.948 422.422C258.125 422.26 258.297 422.094 258.469 421.932C258.656 421.755 258.839 421.578 259.021 421.401C259.193 421.234 259.365 421.068 259.536 420.901C259.719 420.724 259.896 420.542 260.078 420.365C260.245 420.198 260.417 420.026 260.583 419.854C260.76 419.677 260.937 419.49 261.115 419.302C261.276 419.135 261.448 418.964 261.609 418.792C261.786 418.604 261.964 418.411 262.141 418.219C262.297 418.052 262.458 417.885 262.615 417.714C262.802 417.51 262.984 417.302 263.172 417.094C263.318 416.932 263.464 416.776 263.604 416.615C263.922 416.25 264.24 415.891 264.557 415.521C264.703 415.349 264.849 415.172 264.995 414.995C265.167 414.797 265.339 414.594 265.505 414.391C265.656 414.203 265.802 414.021 265.958 413.833C266.12 413.635 266.276 413.438 266.438 413.24C266.589 413.047 266.74 412.859 266.885 412.667C267.042 412.469 267.198 412.271 267.349 412.073C267.495 411.88 267.646 411.682 267.797 411.49C267.943 411.286 268.094 411.089 268.245 410.891C268.391 410.693 268.531 410.495 268.677 410.302C268.823 410.094 268.974 409.896 269.12 409.688C269.26 409.495 269.401 409.292 269.542 409.094C269.682 408.885 269.828 408.682 269.974 408.474C270.115 408.271 270.25 408.073 270.385 407.87C270.526 407.661 270.672 407.448 270.812 407.234C270.943 407.036 271.078 406.833 271.208 406.63C271.349 406.417 271.49 406.198 271.63 405.984C271.76 405.781 271.885 405.578 272.016 405.375C272.156 405.156 272.292 404.932 272.432 404.714C272.552 404.51 272.677 404.307 272.802 404.104C272.87 403.99 272.943 403.875 273.01 403.76H281.328C298.219 403.76 309.807 403.13 316.745 401.828C328.937 399.604 339.318 395.823 347.594 390.583C356.021 385.25 363.026 377.422 368.417 367.318C373.786 357.245 376.505 345.516 376.505 332.438C376.505 317.089 372.562 303.521 364.776 292.115C356.953 280.656 345.974 272.5 332.141 267.87C321.755 264.396 307.75 262.245 290.469 261.458V261.432L286.682 261.307C283.312 261.198 279.75 261.13 276.073 261.12C275.547 261.12 275.021 261.115 274.495 261.115H181.422V396.615C181.323 396.62 181.219 396.625 181.125 396.63C180.745 396.641 180.37 396.656 179.99 396.667C179.833 396.672 179.677 396.677 179.521 396.677C178.995 396.688 178.469 396.698 177.938 396.698C161.589 396.698 149.208 391.786 140.089 381.682C139.885 381.464 139.693 381.234 139.495 381.005C139.443 380.943 139.391 380.885 139.339 380.823C139.177 380.63 139.021 380.432 138.859 380.24C138.823 380.193 138.786 380.146 138.75 380.099C138.578 379.88 138.411 379.661 138.24 379.438V57.9271H231.609V96.3594H181.422V222.688H268.703C275.187 222.688 281.255 222.557 286.729 222.307L290.469 222.141V222.115C302.594 221.406 311.792 220.042 318.49 217.974C332.245 213.818 342.797 206.755 349.854 196.99C356.896 187.26 360.464 174.969 360.464 160.458C360.464 146.76 357.167 134.5 350.667 124.021C344.057 113.359 334.49 105.958 322.234 102.026C314.854 99.6615 304.177 98.0208 290.469 97.1458V58.1406C313.964 59.0573 333.38 62.8646 348.24 69.4896C365.208 77.0573 378.688 88.8646 388.302 104.594C397.953 120.391 402.849 137.115 402.849 154.307C402.849 170.266 398.526 185.51 390 199.62C381.495 213.703 368.406 225.271 351.099 233.984L342.286 238.427L351.74 241.245C374.12 247.922 391.536 259.417 403.5 275.411C415.458 291.401 421.521 310.594 421.521 332.438C421.521 350.125 417.802 366.781 410.474 381.953ZM290.469 269.307C306.854 270.073 320.021 272.089 329.656 275.312C341.828 279.38 351.464 286.526 358.302 296.536C365.177 306.615 368.661 318.693 368.661 332.438C368.661 344.214 366.25 354.708 361.495 363.625C356.755 372.521 350.667 379.359 343.401 383.958C335.979 388.656 326.536 392.073 315.318 394.115C308.932 395.313 297.5 395.917 281.328 395.917H277.214C277.63 395.042 278.042 394.151 278.438 393.255C286.422 375.12 290.469 349.375 290.469 316.724V269.307ZM189.26 395.802V268.958H231.609V319.62C231.609 341.172 229.911 356.969 226.573 366.583C223.328 375.891 217.578 383.057 208.979 388.49C203.193 392.151 196.563 394.604 189.26 395.802ZM172.281 442.083C171.245 442.047 170.214 442 169.188 441.938C156.797 441.24 145.552 439.073 135.661 435.469C122.964 430.849 112.094 423.714 103.37 414.26C86.7135 396.224 78.3437 369.089 78.4687 333.562L116.901 328.292C118.302 352.755 122.734 370.349 130.401 381.922V381.953L131.109 382.969C131.854 384.031 132.635 385.047 133.448 386.005C133.719 386.318 133.99 386.635 134.266 386.938C140.859 394.24 149.068 399.286 158.802 402.047C164.635 403.703 171.026 404.536 177.938 404.536C178.432 404.536 178.927 404.536 179.417 404.526C182.375 404.474 185.266 404.271 188.047 403.911C188.505 403.849 188.969 403.786 189.427 403.719C198.203 402.422 206.193 399.531 213.167 395.12C223.182 388.792 230.182 380.057 233.979 369.161C237.661 358.568 239.453 342.365 239.453 319.62V268.958H274.495C275.115 268.958 275.734 268.958 276.349 268.964C276.536 268.964 276.724 268.964 276.917 268.964C277.365 268.969 277.818 268.974 278.266 268.974C278.448 268.979 278.635 268.979 278.818 268.984C279.422 268.99 280.016 268.995 280.604 269.005C280.682 269.005 280.76 269.01 280.833 269.01C281.354 269.021 281.87 269.026 282.38 269.036C282.469 269.042 282.547 269.042 282.63 269.042V316.724C282.63 348.276 278.802 372.964 271.26 390.094C270.062 392.813 268.745 395.438 267.344 397.911C267.115 398.318 266.88 398.724 266.641 399.125C260.245 409.99 251.578 418.943 240.802 425.823C239.208 426.839 237.568 427.813 235.88 428.74C219.615 437.667 200.214 442.193 178.203 442.193C176.203 442.193 174.229 442.156 172.281 442.083ZM231.609 214.844H189.26V104.198H231.609V214.844ZM239.453 57.9271H278.964C280.177 57.9271 281.406 57.9323 282.63 57.9479V214.62C282.547 214.625 282.469 214.625 282.385 214.63C282.224 214.635 282.062 214.641 281.901 214.646C281.411 214.661 280.917 214.677 280.417 214.688C280.214 214.693 280.016 214.698 279.812 214.708C279.302 214.719 278.786 214.729 278.266 214.745C278.109 214.75 277.953 214.75 277.797 214.755C277.12 214.766 276.443 214.781 275.76 214.792C275.625 214.792 275.49 214.797 275.354 214.797C274.797 214.802 274.245 214.813 273.688 214.818C273.464 214.823 273.24 214.823 273.01 214.823C272.51 214.828 272 214.833 271.49 214.833C271.276 214.839 271.068 214.839 270.849 214.839C270.141 214.844 269.427 214.844 268.703 214.844H239.453V57.9271ZM290.469 105.005C303.281 105.844 313.151 107.349 319.844 109.495C330.417 112.891 338.318 118.995 344.005 128.151C349.724 137.375 352.62 148.245 352.62 160.458C352.62 173.281 349.552 184.026 343.5 192.396C337.469 200.74 328.292 206.818 316.203 210.474C310.25 212.307 301.609 213.578 290.469 214.255V105.005ZM409.776 270.714C398.38 255.474 382.542 244.031 362.609 236.615C377.354 227.818 388.807 216.771 396.714 203.677C405.99 188.328 410.693 171.714 410.693 154.307C410.693 135.651 405.411 117.552 394.995 100.505C384.531 83.3958 369.88 70.5521 351.432 62.3281C335.599 55.2708 315.104 51.2292 290.469 50.2969V50.2708L286.651 50.1771H286.646L282.63 50.0781V50.1042C281.406 50.0937 280.177 50.0833 278.964 50.0833H130.401V363.219C127.161 352.927 125.193 339.698 124.526 323.661L124.349 319.354L70.724 326.708L70.6667 330.068C70.3073 349.578 72.3646 366.969 76.776 381.75C81.25 396.724 88.2552 409.453 97.6042 419.583C106.594 429.313 117.615 436.797 130.401 441.859V450.031H281.328C306.094 450.031 327.349 447.786 344.505 443.359C361.844 438.88 376.516 432.13 388.109 423.286C399.776 414.385 409.677 401.63 417.531 385.37C425.38 369.125 429.365 351.318 429.365 332.438C429.365 308.859 422.776 288.094 409.776 270.714Z" fill="#E7D49E" stroke="#E7D49E" stroke-width="11"/>
</g>
<defs>
<clipPath id="clip0_0_1">
<rect width="500" height="500" fill="white"/>
</clipPath>
</defs>
</svg>
