<svg xmlns="http://www.w3.org/2000/svg" xmlns:xlink="http://www.w3.org/1999/xlink" width="500" zoomAndPan="magnify" viewBox="0 0 375 374.999991" height="500" preserveAspectRatio="xMidYMid meet" version="1.0"><defs><clipPath id="ec7bfdd39c"><path d="M 52.5 0 L 322.5 0 C 351.496094 0 375 23.503906 375 52.5 L 375 322.5 C 375 351.496094 351.496094 375 322.5 375 L 52.5 375 C 23.503906 375 0 351.496094 0 322.5 L 0 52.5 C 0 23.503906 23.503906 0 52.5 0 Z M 52.5 0 " clip-rule="nonzero"/></clipPath><clipPath id="cbf24e423a"><path d="M 194 289 L 283 289 L 283 363.207031 L 194 363.207031 Z M 194 289 " clip-rule="nonzero"/></clipPath><clipPath id="b36a588801"><path d="M 52.167969 197 L 117 197 L 117 262 L 52.167969 262 Z M 52.167969 197 " clip-rule="nonzero"/></clipPath><clipPath id="2ee4de6b23"><path d="M 253 64 L 322.917969 64 L 322.917969 124 L 253 124 Z M 253 64 " clip-rule="nonzero"/></clipPath><clipPath id="73c41a9b3c"><path d="M 199 11.457031 L 237 11.457031 L 237 67 L 199 67 Z M 199 11.457031 " clip-rule="nonzero"/></clipPath></defs><rect x="-37.5" width="450" fill="#ffffff" y="-37.499999" height="449.999989" fill-opacity="1"/><rect x="-37.5" width="450" fill="#ffffff" y="-37.499999" height="449.999989" fill-opacity="1"/><g clip-path="url(#ec7bfdd39c)"><rect x="-37.5" width="450" fill="#181b32" y="-37.499999" height="449.999989" fill-opacity="1"/></g><path fill="#e7d49e" d="M 277.234375 300.699219 L 154.6875 300.699219 C 151.636719 300.699219 149.15625 298.21875 149.15625 295.167969 C 149.15625 292.113281 151.636719 289.632812 154.6875 289.632812 L 271.800781 289.632812 L 271.800781 280.859375 C 271.800781 277.808594 274.28125 275.328125 277.332031 275.328125 C 280.382812 275.328125 282.863281 277.808594 282.863281 280.859375 L 282.863281 295.167969 C 282.765625 298.3125 280.289062 300.699219 277.234375 300.699219 Z M 240.804688 191.40625 L 207.617188 191.40625 C 204.566406 191.40625 202.085938 188.925781 202.085938 185.875 C 202.085938 182.820312 204.566406 180.34375 207.617188 180.34375 L 240.710938 180.34375 C 243.761719 180.34375 246.242188 182.820312 246.242188 185.875 C 246.242188 188.925781 243.761719 191.40625 240.804688 191.40625 Z M 240.804688 191.40625 " fill-opacity="1" fill-rule="evenodd"/><path fill="#e7d49e" d="M 78.390625 357.058594 C 77.34375 357.058594 76.292969 356.773438 75.4375 356.203125 C 73.527344 354.960938 72.574219 352.671875 73.050781 350.382812 L 105.859375 201.703125 C 106.335938 199.511719 108.050781 197.890625 110.246094 197.507812 L 206.664062 180.4375 C 208.664062 180.054688 210.765625 180.914062 212.003906 182.535156 C 213.242188 184.15625 213.433594 186.351562 212.574219 188.257812 L 159.550781 297.644531 C 159.167969 298.410156 158.597656 299.171875 157.835938 299.648438 L 81.730469 356.011719 C 80.777344 356.679688 79.535156 357.058594 78.390625 357.058594 Z M 115.777344 207.617188 L 86.878906 338.464844 L 150.203125 291.636719 L 197.890625 193.121094 Z M 154.6875 295.261719 Z M 154.6875 295.261719 " fill-opacity="1" fill-rule="evenodd"/><g clip-path="url(#cbf24e423a)"><path fill="#e7d49e" d="M 277.234375 363.449219 C 275.996094 363.449219 274.757812 363.070312 273.804688 362.210938 L 196.457031 299.457031 C 194.074219 297.550781 193.691406 294.117188 195.695312 291.734375 C 197.601562 289.347656 201.035156 288.96875 203.421875 290.96875 L 271.800781 346.378906 L 271.800781 295.167969 C 271.800781 292.113281 274.28125 289.632812 277.332031 289.632812 C 280.382812 289.632812 282.863281 292.113281 282.863281 295.167969 L 282.863281 357.917969 C 282.863281 360.015625 281.621094 361.925781 279.714844 362.878906 C 278.855469 363.257812 278.09375 363.449219 277.234375 363.449219 Z M 277.234375 363.449219 " fill-opacity="1" fill-rule="evenodd"/></g><path fill="#e7d49e" d="M 277.234375 286.390625 C 274.945312 286.390625 272.945312 284.960938 272.085938 282.863281 L 235.65625 187.875 C 235.558594 187.6875 235.558594 187.589844 235.464844 187.398438 L 200.179688 61.035156 C 199.703125 59.320312 200.082031 57.507812 201.226562 56.078125 C 202.371094 54.644531 204.089844 53.980469 205.898438 54.074219 L 257.398438 57.699219 C 259.6875 57.890625 261.691406 59.414062 262.261719 61.703125 L 302.222656 200.75 C 302.507812 201.703125 302.507812 202.660156 302.316406 203.613281 L 282.578125 282.292969 C 282.003906 284.582031 280 286.296875 277.617188 286.488281 C 277.523438 286.390625 277.425781 286.390625 277.234375 286.390625 Z M 245.957031 184.15625 L 276.089844 262.742188 L 291.066406 202.371094 L 252.632812 68.378906 L 212.765625 65.613281 Z M 245.957031 184.15625 " fill-opacity="1" fill-rule="evenodd"/><g clip-path="url(#b36a588801)"><path fill="#e7d49e" d="M 99.5625 261.40625 C 98.898438 261.40625 98.132812 261.308594 97.464844 261.023438 L 55.789062 244.144531 C 53.882812 243.382812 52.644531 241.664062 52.355469 239.660156 C 52.167969 237.660156 53.023438 235.65625 54.742188 234.511719 L 108.050781 198.367188 C 110.53125 196.648438 113.964844 197.316406 115.679688 199.796875 C 117.398438 202.277344 116.730469 205.710938 114.25 207.425781 L 69.429688 237.847656 L 101.566406 250.820312 C 104.332031 251.964844 105.761719 255.207031 104.617188 257.972656 C 103.761719 260.070312 101.664062 261.40625 99.5625 261.40625 Z M 99.5625 261.40625 " fill-opacity="1" fill-rule="evenodd"/></g><g clip-path="url(#2ee4de6b23)"><path fill="#e7d49e" d="M 272.753906 123.980469 C 271.035156 123.980469 269.320312 123.121094 268.269531 121.59375 C 266.554688 119.117188 267.125 115.683594 269.605469 113.964844 L 310.042969 85.738281 L 306.132812 76.582031 L 258.542969 75.054688 C 255.492188 74.960938 253.109375 72.386719 253.203125 69.429688 C 253.296875 66.375 255.875 63.992188 258.828125 64.085938 L 309.851562 65.804688 C 311.949219 65.898438 313.859375 67.140625 314.714844 69.140625 L 321.773438 85.640625 C 322.820312 88.023438 321.964844 90.792969 319.867188 92.316406 L 275.804688 123.121094 C 274.945312 123.597656 273.898438 123.980469 272.753906 123.980469 Z M 272.753906 123.980469 " fill-opacity="1" fill-rule="evenodd"/></g><g clip-path="url(#73c41a9b3c)"><path fill="#e7d49e" d="M 231.171875 66.851562 C 228.121094 66.851562 225.738281 64.46875 225.640625 61.417969 L 225.355469 26.988281 L 210.859375 35.476562 L 210.859375 59.511719 C 210.859375 62.5625 208.378906 65.042969 205.328125 65.042969 C 202.277344 65.042969 199.796875 62.5625 199.796875 59.511719 L 199.796875 32.328125 C 199.796875 30.421875 200.847656 28.609375 202.46875 27.5625 L 227.835938 12.589844 C 229.550781 11.636719 231.648438 11.539062 233.367188 12.589844 C 235.082031 13.542969 236.132812 15.355469 236.132812 17.355469 L 236.511719 61.320312 C 236.703125 64.277344 234.226562 66.757812 231.171875 66.851562 Z M 231.171875 66.851562 " fill-opacity="1" fill-rule="evenodd"/></g><path fill="#e7d49e" d="M 102.425781 248.148438 C 100.996094 248.148438 99.5625 247.578125 98.515625 246.527344 C 96.417969 244.335938 96.417969 240.902344 98.609375 238.804688 L 146.675781 192.074219 C 148.871094 189.972656 152.304688 189.972656 154.402344 192.167969 C 156.5 194.363281 156.5 197.792969 154.304688 199.894531 L 106.238281 246.625 C 105.191406 247.671875 103.855469 248.148438 102.425781 248.148438 Z M 102.425781 248.148438 " fill-opacity="1" fill-rule="evenodd"/></svg>