<svg xmlns="http://www.w3.org/2000/svg" xmlns:xlink="http://www.w3.org/1999/xlink" width="500" zoomAndPan="magnify" viewBox="0 0 375 374.999991" height="500" preserveAspectRatio="xMidYMid meet" version="1.0"><defs><clipPath id="62e7b262ae"><path d="M 187.5 0 C 83.945312 0 0 83.945312 0 187.5 C 0 291.054688 83.945312 375 187.5 375 C 291.054688 375 375 291.054688 375 187.5 C 375 83.945312 291.054688 0 187.5 0 Z M 187.5 0 " clip-rule="nonzero"/></clipPath><clipPath id="2b596b9430"><path d="M 52.96875 37.558594 L 322.023438 37.558594 L 322.023438 337.523438 L 52.96875 337.523438 Z M 52.96875 37.558594 " clip-rule="nonzero"/></clipPath></defs><g clip-path="url(#62e7b262ae)"><rect x="-37.5" width="450" fill="#181b32" y="-37.499999" height="449.999989" fill-opacity="1"/></g><g clip-path="url(#2b596b9430)"><path fill="#e7d49e" d="M 307.855469 286.464844 C 302.367188 297.824219 295.523438 306.679688 287.515625 312.789062 C 279.449219 318.941406 269.148438 323.660156 256.90625 326.820312 C 244.519531 330.019531 229.074219 331.644531 210.996094 331.644531 L 168.90625 331.644531 C 168.996094 331.609375 169.085938 331.574219 169.179688 331.539062 C 169.429688 331.445312 169.679688 331.347656 169.929688 331.253906 C 170.136719 331.175781 170.34375 331.09375 170.550781 331.011719 C 170.800781 330.914062 171.050781 330.8125 171.296875 330.710938 C 171.503906 330.628906 171.707031 330.546875 171.90625 330.464844 C 172.15625 330.359375 172.40625 330.253906 172.65625 330.148438 C 172.855469 330.0625 173.054688 329.976562 173.25 329.890625 C 173.5 329.78125 173.75 329.671875 174 329.558594 C 174.191406 329.472656 174.386719 329.386719 174.578125 329.300781 C 174.832031 329.183594 175.085938 329.0625 175.339844 328.945312 C 175.519531 328.859375 175.707031 328.773438 175.890625 328.683594 C 176.152344 328.558594 176.414062 328.429688 176.671875 328.300781 C 176.84375 328.21875 177.019531 328.132812 177.191406 328.046875 C 177.472656 327.902344 177.753906 327.757812 178.039062 327.613281 C 178.183594 327.539062 178.328125 327.464844 178.472656 327.390625 C 178.898438 327.164062 179.320312 326.9375 179.738281 326.707031 C 180.078125 326.523438 180.414062 326.332031 180.75 326.140625 C 180.859375 326.082031 180.96875 326.015625 181.078125 325.953125 C 181.300781 325.824219 181.523438 325.695312 181.746094 325.5625 C 181.878906 325.488281 182.007812 325.40625 182.136719 325.328125 C 182.335938 325.210938 182.535156 325.089844 182.730469 324.972656 C 182.867188 324.886719 183.007812 324.796875 183.144531 324.710938 C 183.328125 324.59375 183.515625 324.480469 183.699219 324.367188 C 183.839844 324.277344 183.980469 324.183594 184.125 324.089844 C 184.300781 323.976562 184.476562 323.863281 184.652344 323.746094 C 184.796875 323.652344 184.941406 323.554688 185.082031 323.457031 C 185.253906 323.34375 185.425781 323.230469 185.597656 323.113281 C 185.742188 323.015625 185.882812 322.914062 186.027344 322.816406 C 186.191406 322.699219 186.359375 322.582031 186.523438 322.46875 C 186.667969 322.363281 186.8125 322.261719 186.953125 322.160156 C 187.117188 322.042969 187.28125 321.925781 187.4375 321.808594 C 187.582031 321.703125 187.726562 321.597656 187.867188 321.492188 C 188.027344 321.371094 188.183594 321.253906 188.339844 321.136719 C 188.484375 321.027344 188.625 320.917969 188.761719 320.808594 C 188.917969 320.691406 189.074219 320.570312 189.230469 320.449219 C 189.367188 320.335938 189.511719 320.226562 189.648438 320.117188 C 189.800781 319.992188 189.953125 319.871094 190.101562 319.75 C 190.242188 319.636719 190.378906 319.523438 190.515625 319.40625 C 190.664062 319.285156 190.816406 319.160156 190.960938 319.035156 C 191.101562 318.917969 191.238281 318.804688 191.371094 318.6875 C 191.519531 318.5625 191.664062 318.4375 191.808594 318.308594 C 191.945312 318.191406 192.082031 318.074219 192.214844 317.957031 C 192.359375 317.828125 192.5 317.699219 192.640625 317.570312 C 192.777344 317.449219 192.910156 317.328125 193.042969 317.207031 C 193.183594 317.078125 193.320312 316.949219 193.460938 316.816406 C 193.59375 316.695312 193.722656 316.570312 193.851562 316.449219 C 193.992188 316.316406 194.128906 316.183594 194.265625 316.050781 C 194.394531 315.925781 194.523438 315.800781 194.652344 315.675781 C 194.789062 315.542969 194.921875 315.40625 195.058594 315.273438 C 195.183594 315.148438 195.3125 315.019531 195.4375 314.890625 C 195.570312 314.757812 195.703125 314.617188 195.835938 314.476562 C 195.957031 314.351562 196.085938 314.222656 196.207031 314.09375 C 196.339844 313.953125 196.472656 313.808594 196.605469 313.664062 C 196.722656 313.539062 196.84375 313.414062 196.960938 313.285156 C 197.101562 313.132812 197.238281 312.976562 197.378906 312.820312 C 197.488281 312.699219 197.597656 312.582031 197.703125 312.460938 C 197.941406 312.1875 198.179688 311.917969 198.417969 311.640625 C 198.527344 311.511719 198.636719 311.378906 198.746094 311.246094 C 198.875 311.097656 199.003906 310.945312 199.128906 310.792969 C 199.242188 310.652344 199.351562 310.515625 199.46875 310.375 C 199.589844 310.226562 199.707031 310.078125 199.828125 309.929688 C 199.941406 309.785156 200.054688 309.644531 200.164062 309.5 C 200.28125 309.351562 200.398438 309.203125 200.511719 309.054688 C 200.621094 308.910156 200.734375 308.761719 200.847656 308.617188 C 200.957031 308.464844 201.070312 308.316406 201.183594 308.167969 C 201.292969 308.019531 201.398438 307.871094 201.507812 307.726562 C 201.617188 307.570312 201.730469 307.421875 201.839844 307.265625 C 201.945312 307.121094 202.050781 306.96875 202.15625 306.820312 C 202.261719 306.664062 202.371094 306.511719 202.480469 306.355469 C 202.585938 306.203125 202.6875 306.054688 202.789062 305.902344 C 202.894531 305.746094 203.003906 305.585938 203.109375 305.425781 C 203.207031 305.277344 203.308594 305.125 203.40625 304.972656 C 203.511719 304.8125 203.617188 304.648438 203.722656 304.488281 C 203.820312 304.335938 203.914062 304.183594 204.011719 304.03125 C 204.117188 303.867188 204.21875 303.699219 204.324219 303.535156 C 204.414062 303.382812 204.507812 303.230469 204.601562 303.078125 C 204.652344 302.992188 204.707031 302.90625 204.757812 302.820312 L 210.996094 302.820312 C 223.664062 302.820312 232.355469 302.347656 237.558594 301.371094 C 246.703125 299.703125 254.488281 296.867188 260.695312 292.9375 C 267.015625 288.9375 272.269531 283.066406 276.3125 275.488281 C 280.339844 267.933594 282.378906 259.136719 282.378906 249.328125 C 282.378906 237.816406 279.421875 227.640625 273.582031 219.085938 C 267.714844 210.492188 259.480469 204.375 249.105469 200.902344 C 241.316406 198.296875 230.8125 196.683594 217.851562 196.09375 L 217.851562 196.074219 L 215.011719 195.980469 C 212.484375 195.898438 209.8125 195.847656 207.054688 195.839844 C 206.660156 195.839844 206.265625 195.835938 205.871094 195.835938 L 136.066406 195.835938 L 136.066406 297.460938 C 135.992188 297.464844 135.914062 297.46875 135.84375 297.472656 C 135.558594 297.480469 135.277344 297.492188 134.992188 297.5 C 134.875 297.503906 134.757812 297.507812 134.640625 297.507812 C 134.246094 297.515625 133.851562 297.523438 133.453125 297.523438 C 121.191406 297.523438 111.90625 293.839844 105.066406 286.261719 C 104.914062 286.097656 104.769531 285.925781 104.621094 285.753906 C 104.582031 285.707031 104.542969 285.664062 104.503906 285.617188 C 104.382812 285.472656 104.265625 285.324219 104.144531 285.179688 C 104.117188 285.144531 104.089844 285.109375 104.0625 285.074219 C 103.933594 284.910156 103.808594 284.746094 103.679688 284.578125 L 103.679688 43.445312 L 173.707031 43.445312 L 173.707031 72.269531 L 136.066406 72.269531 L 136.066406 167.015625 L 201.527344 167.015625 C 206.390625 167.015625 210.941406 166.917969 215.046875 166.730469 L 217.851562 166.605469 L 217.851562 166.585938 C 226.945312 166.054688 233.84375 165.03125 238.867188 163.480469 C 249.183594 160.363281 257.097656 155.066406 262.390625 147.742188 C 267.671875 140.445312 270.347656 131.226562 270.347656 120.34375 C 270.347656 110.070312 267.875 100.875 263 93.015625 C 258.042969 85.019531 250.867188 79.46875 241.675781 76.519531 C 236.140625 74.746094 228.132812 73.515625 217.851562 72.859375 L 217.851562 43.605469 C 235.472656 44.292969 250.035156 47.148438 261.179688 52.117188 C 273.90625 57.792969 284.015625 66.648438 291.226562 78.445312 C 298.464844 90.292969 302.136719 102.835938 302.136719 115.730469 C 302.136719 127.699219 298.894531 139.132812 292.5 149.714844 C 286.121094 160.277344 276.304688 168.953125 263.324219 175.488281 L 256.714844 178.820312 L 263.804688 180.933594 C 280.589844 185.941406 293.652344 194.5625 302.625 206.558594 C 311.59375 218.550781 316.140625 232.945312 316.140625 249.328125 C 316.140625 262.59375 313.351562 275.085938 307.855469 286.464844 Z M 217.851562 201.980469 C 230.140625 202.554688 240.015625 204.066406 247.242188 206.484375 C 256.371094 209.535156 263.597656 214.894531 268.726562 222.402344 C 273.882812 229.960938 276.496094 239.019531 276.496094 249.328125 C 276.496094 258.160156 274.6875 266.03125 271.121094 272.71875 C 267.566406 279.390625 263 284.519531 257.550781 287.96875 C 251.984375 291.492188 244.902344 294.054688 236.488281 295.585938 C 231.699219 296.484375 223.125 296.9375 210.996094 296.9375 L 207.910156 296.9375 C 208.222656 296.28125 208.53125 295.613281 208.828125 294.941406 C 214.816406 281.339844 217.851562 262.03125 217.851562 237.542969 Z M 141.945312 296.851562 L 141.945312 201.71875 L 173.707031 201.71875 L 173.707031 239.714844 C 173.707031 255.878906 172.433594 267.726562 169.929688 274.9375 C 167.496094 281.917969 163.183594 287.292969 156.734375 291.367188 C 152.394531 294.113281 147.421875 295.953125 141.945312 296.851562 Z M 129.210938 331.5625 C 128.433594 331.535156 127.660156 331.5 126.890625 331.453125 C 117.597656 330.929688 109.164062 329.304688 101.746094 326.601562 C 92.222656 323.136719 84.070312 317.785156 77.527344 310.695312 C 65.035156 297.167969 58.757812 276.816406 58.851562 250.171875 L 87.675781 246.21875 C 88.726562 264.566406 92.050781 277.761719 97.800781 286.441406 L 97.800781 286.464844 L 98.332031 287.226562 C 98.890625 288.023438 99.476562 288.785156 100.085938 289.503906 C 100.289062 289.738281 100.492188 289.976562 100.699219 290.203125 C 105.644531 295.679688 111.800781 299.464844 119.101562 301.535156 C 123.476562 302.777344 128.269531 303.402344 133.453125 303.402344 C 133.824219 303.402344 134.195312 303.402344 134.5625 303.394531 C 136.78125 303.355469 138.949219 303.203125 141.035156 302.933594 C 141.378906 302.886719 141.726562 302.839844 142.070312 302.789062 C 148.652344 301.816406 154.644531 299.648438 159.875 296.339844 C 167.386719 291.59375 172.636719 285.042969 175.484375 276.871094 C 178.246094 268.925781 179.589844 256.773438 179.589844 239.714844 L 179.589844 201.71875 L 205.871094 201.71875 C 206.335938 201.71875 206.800781 201.71875 207.261719 201.722656 C 207.402344 201.722656 207.542969 201.722656 207.6875 201.722656 C 208.023438 201.726562 208.363281 201.730469 208.699219 201.730469 C 208.835938 201.734375 208.976562 201.734375 209.113281 201.738281 C 209.566406 201.742188 210.011719 201.746094 210.453125 201.753906 C 210.511719 201.753906 210.570312 201.757812 210.625 201.757812 C 211.015625 201.765625 211.402344 201.769531 211.785156 201.777344 C 211.851562 201.78125 211.910156 201.78125 211.972656 201.78125 L 211.972656 237.542969 C 211.972656 261.207031 209.101562 279.722656 203.445312 292.570312 C 202.546875 294.609375 201.558594 296.578125 200.507812 298.433594 C 200.335938 298.738281 200.160156 299.042969 199.980469 299.34375 C 195.183594 307.492188 188.683594 314.207031 180.601562 319.367188 C 179.40625 320.128906 178.175781 320.859375 176.910156 321.554688 C 164.710938 328.25 150.160156 331.644531 133.652344 331.644531 C 132.152344 331.644531 130.671875 331.617188 129.210938 331.5625 Z M 173.707031 161.132812 L 141.945312 161.132812 L 141.945312 78.148438 L 173.707031 78.148438 Z M 179.589844 43.445312 L 209.222656 43.445312 C 210.132812 43.445312 211.054688 43.449219 211.972656 43.460938 L 211.972656 160.964844 C 211.910156 160.96875 211.851562 160.96875 211.789062 160.972656 C 211.667969 160.976562 211.546875 160.980469 211.425781 160.984375 C 211.058594 160.996094 210.6875 161.007812 210.3125 161.015625 C 210.160156 161.019531 210.011719 161.023438 209.859375 161.03125 C 209.476562 161.039062 209.089844 161.046875 208.699219 161.058594 C 208.582031 161.0625 208.464844 161.0625 208.347656 161.066406 C 207.839844 161.074219 207.332031 161.085938 206.820312 161.09375 C 206.71875 161.09375 206.617188 161.097656 206.515625 161.097656 C 206.097656 161.101562 205.683594 161.109375 205.265625 161.113281 C 205.097656 161.117188 204.929688 161.117188 204.757812 161.117188 C 204.382812 161.121094 204 161.125 203.617188 161.125 C 203.457031 161.128906 203.300781 161.128906 203.136719 161.128906 C 202.605469 161.132812 202.070312 161.132812 201.527344 161.132812 L 179.589844 161.132812 Z M 217.851562 78.753906 C 227.460938 79.382812 234.863281 80.511719 239.882812 82.121094 C 247.8125 84.667969 253.738281 89.246094 258.003906 96.113281 C 262.292969 103.03125 264.464844 111.183594 264.464844 120.34375 C 264.464844 129.960938 262.164062 138.019531 257.625 144.296875 C 253.101562 150.554688 246.21875 155.113281 237.152344 157.855469 C 232.6875 159.230469 226.207031 160.183594 217.851562 160.691406 Z M 307.332031 203.035156 C 298.785156 191.605469 286.90625 183.023438 271.957031 177.460938 C 283.015625 170.863281 291.605469 162.578125 297.535156 152.757812 C 304.492188 141.246094 308.019531 128.785156 308.019531 115.730469 C 308.019531 101.738281 304.058594 88.164062 296.246094 75.378906 C 288.398438 62.546875 277.410156 52.914062 263.574219 46.746094 C 251.699219 41.453125 236.328125 38.421875 217.851562 37.722656 L 217.851562 37.703125 L 214.988281 37.632812 C 214.988281 37.632812 214.984375 37.632812 214.984375 37.632812 L 211.972656 37.558594 L 211.972656 37.578125 C 211.054688 37.570312 210.132812 37.5625 209.222656 37.5625 L 97.800781 37.5625 L 97.800781 272.414062 C 95.371094 264.695312 93.894531 254.773438 93.394531 242.746094 L 93.261719 239.515625 L 53.042969 245.03125 L 53 247.550781 C 52.730469 262.183594 54.273438 275.226562 57.582031 286.3125 C 60.9375 297.542969 66.191406 307.089844 73.203125 314.6875 C 79.945312 321.984375 88.210938 327.597656 97.800781 331.394531 L 97.800781 337.523438 L 210.996094 337.523438 C 229.570312 337.523438 245.511719 335.839844 258.378906 332.519531 C 271.382812 329.160156 282.386719 324.097656 291.082031 317.464844 C 299.832031 310.789062 307.257812 301.222656 313.148438 289.027344 C 319.035156 276.84375 322.023438 263.488281 322.023438 249.328125 C 322.023438 231.644531 317.082031 216.070312 307.332031 203.035156 " fill-opacity="1" fill-rule="nonzero"/></g></svg>